<?xml version="1.0" encoding="utf-8"?>
<svg id="Layer_1" style="enable-background:new 0 0 300.8 307;" x="0px" y="0px" viewBox="61 49 179 205" xmlns="http://www.w3.org/2000/svg">
  <defs>
    <style type="text/css">
	.st0{opacity:0.74;fill:#D01E00;}
	.st1{opacity:0.72;fill:#4DFFFF;}
	.st2{fill:#D01E00;}
	.st3{opacity:0.71;fill:#FFFFFF;}
	.st4{fill:none;stroke:#000000;stroke-width:8;stroke-miterlimit:10;}
	.st5{fill:none;stroke:#000000;stroke-miterlimit:10;}
</style>
  </defs>
  <g>
    <path d="M235.8,176.5c-11.8-23.9-48.7-35.7-68.5-42c-2.4-0.8-4.5-1.4-6.3-2.1c-16.4-5.5-24.6-14.1-22.5-23.5&#10;&#9;&#9;c1.6-7.1,9.2-12.8,15.8-11.9l1-7.9c-10.8-1.4-22,6.9-24.6,18.1c-1,4.4-1.1,11.2,4.3,18.2c4.7,6.1,12.6,11.1,23.4,14.7&#10;&#9;&#9;c1.9,0.6,4,1.3,6.4,2.1c18.7,6,53.4,17.1,63.8,37.9c3.8,7.7,4,15.9,0.7,25.2c-4.1,11.6-13.2,18.8-26.9,21.5c-0.7,0.1-1,0.3-2,0.4&#10;&#9;&#9;v8.1c1-0.2,2.2-0.3,3.3-0.6c16.6-3.2,28-12.5,33.1-26.7C240.9,196.6,240.5,186.1,235.8,176.5z" style="fill: rgb(255, 255, 255); stroke: rgb(255, 255, 255);"/>
    <ellipse cx="159.6" cy="241.7" rx="11.7" ry="11.7" style="fill: rgb(255, 255, 255); stroke: rgb(255, 255, 255);"/>
    <ellipse cx="87.9" cy="241.7" rx="11.7" ry="11.7" style="fill: rgb(255, 255, 255); stroke: rgb(255, 255, 255);"/>
    <path d="M164.4,167.5H69c-4.1,0-7.6,3.5-7.6,7.6v55.8c0,4.1,3.5,7.6,7.6,7.6h1.7c1.4-8,8.6-14.5,17.2-14.5s15.8,6.5,17.2,14.5h37.3&#10;&#9;&#9;c1.4-8,8.6-14.5,17.2-14.5s15.8,6.5,17.2,14.5h3.2c4.1,0,7.3-3.5,7.3-7.6v-26.3l-13.5-31.7C173.2,171.5,170.7,167.5,164.4,167.5z&#10;&#9;&#9; M99.4,201.5c0,2.8-2.2,5-5,5h-19c-2.8,0-5-2.2-5-5v-19c0-2.8,2.2-5,5-5h19c2.8,0,5,2.2,5,5V201.5z M138.4,201.5c0,2.8-2.2,5-5,5&#10;&#9;&#9;h-19c-2.8,0-5-2.2-5-5v-19c0-2.8,2.2-5,5-5h19c2.8,0,5,2.2,5,5V201.5z M172.3,205.5h-18.8c-2.8,0-5.1-1.8-5.1-4.6v-18.5&#10;&#9;&#9;c0-2.8,2.3-4.9,5.1-4.9h11.2c2.8,0,5,4.9,5,4.9l7.5,18.3C177.3,203.5,175,205.5,172.3,205.5z" style="fill: rgb(255, 255, 255); stroke: rgb(255, 255, 255);"/>
    <path d="M184,116.2c0.2,0.2,0.5,0.3,0.8,0.3c0,0,0,0,0,0c0.3,0,0.6,0,0.8-0.3c0.1-0.1,5.7-7.3,11.2-16.1&#10;&#9;&#9;c7.5-12,11.3-21.1,11.3-27.1c0-12.8-10.4-23.3-23.3-23.3c-12.8,0-23.3,10.5-23.3,23.3c0,6.1,3.8,15.2,11.3,27.2&#10;&#9;&#9;C178.4,109,184,116.1,184,116.2z M184.8,61.8c6.2,0,11.2,5,11.2,11.2s-5,11.2-11.2,11.2c-6.2,0-11.2-5-11.2-11.2&#10;&#9;&#9;S178.6,61.8,184.8,61.8z" style="fill: rgb(255, 255, 255); stroke: rgb(255, 255, 255);"/>
  </g>
</svg>